<svg xmlns="http://www.w3.org/2000/svg" width="144" height="32" viewBox="0 0 144 32" fill="none">
  <path d="M41.3056 15.6382C40.4362 15.0505 38.7118 14.394 36.8884 14.394C34.9643 14.394 33.6971 15.1899 33.6971 16.4765C33.6971 17.5795 34.6799 18.1249 36.4474 18.3349L38.044 18.5308C40.9078 18.8943 42.5764 20.0538 42.5764 22.2193C42.5764 24.7342 40.267 26.3137 36.6346 26.3137C34.8959 26.3137 32.7161 25.8954 31.0061 24.623L31.9889 23.0576C33.0149 23.8394 34.3829 24.4959 36.6634 24.4959C38.944 24.4959 40.3822 23.7547 40.3822 22.3587C40.3822 21.2963 39.4696 20.6539 37.5598 20.4297L35.9488 20.248C32.9141 19.8844 31.4885 18.5572 31.4885 16.5877C31.4885 14.0869 33.6413 12.578 36.8758 12.578C38.9998 12.578 40.9366 13.1639 42.2344 14.0163L41.3074 15.6364L41.3056 15.6382Z" fill="#123466"/>
  <path d="M49.1715 8.13413C49.1715 8.97242 48.5019 9.60071 47.6613 9.60071C46.8207 9.60071 46.1655 8.97242 46.1655 8.13413C46.1655 7.29583 46.8063 6.65343 47.6613 6.65343C48.5163 6.65343 49.1715 7.29583 49.1715 8.13413ZM48.7287 26.0613H46.5903V12.8304H48.7287V26.0613Z" fill="#123466"/>
  <path d="M76.4467 17.8601V26.0613H74.3227V18.5449C74.3227 16.03 72.8971 14.5493 70.4185 14.5493C68.1523 14.5493 66.2858 16.0865 66.2858 18.6014V26.0631H64.1618V18.5467C64.1618 16.0318 62.7362 14.5511 60.272 14.5511C58.0058 14.5511 56.1392 16.0882 56.1392 18.6031V26.0649H54.0009V12.8339H56.1105V14.7205C57.2084 13.141 59.003 12.5692 60.6572 12.5692C63.008 12.5692 64.8476 13.6175 65.717 15.3488C66.8005 13.2945 68.9083 12.5692 70.8037 12.5692C74.1535 12.5692 76.4467 14.6658 76.4467 17.8654V17.8601Z" fill="#123466"/>
  <path d="M95.3537 19.4379C95.3537 23.4194 92.4035 26.3261 88.6127 26.3261C86.3898 26.3261 84.7644 25.4454 83.697 24.1041V26.0596H81.5586V5.94044H83.697V14.784C84.7662 13.4428 86.3898 12.5621 88.6127 12.5621C92.4035 12.5621 95.3537 15.4688 95.3537 19.4361V19.4379ZM83.5548 19.4379C83.5548 22.2458 85.5366 24.3706 88.3571 24.3706C91.1777 24.3706 93.1739 22.1769 93.1739 19.4379C93.1739 16.6989 91.2209 14.5193 88.3571 14.5193C85.4934 14.5193 83.5548 16.6424 83.5548 19.4379Z" fill="#123466"/>
  <path d="M112.367 26.0613H110.243V24.0918C109.174 25.4472 107.536 26.3278 105.313 26.3278C101.522 26.3278 98.572 23.4211 98.572 19.4397C98.572 15.4582 101.522 12.5656 105.313 12.5656C107.536 12.5656 109.176 13.4604 110.243 14.8017V12.8321H112.367V26.0631V26.0613ZM100.739 19.4379C100.739 22.1769 102.707 24.3706 105.57 24.3706C108.434 24.3706 110.373 22.2475 110.373 19.4379C110.373 16.6283 108.378 14.5193 105.57 14.5193C102.762 14.5193 100.739 16.713 100.739 19.4379Z" fill="#123466"/>
  <path d="M126.7 15.6382C125.831 15.0505 124.107 14.394 122.283 14.394C120.359 14.394 119.092 15.1899 119.092 16.4765C119.092 17.5795 120.075 18.1249 121.842 18.3349L123.439 18.5308C126.303 18.8943 127.971 20.0538 127.971 22.2193C127.971 24.7342 125.662 26.3137 122.029 26.3137C120.291 26.3137 118.111 25.8954 116.401 24.623L117.384 23.0576C118.41 23.8394 119.778 24.4959 122.058 24.4959C124.339 24.4959 125.777 23.7547 125.777 22.3587C125.777 21.2963 124.864 20.6539 122.955 20.4297L121.344 20.248C118.309 19.8844 116.883 18.5572 116.883 16.5877C116.883 14.0869 119.034 12.578 122.271 12.578C124.395 12.578 126.331 13.1639 127.629 14.0163L126.702 15.6364L126.7 15.6382Z" fill="#123466"/>
  <path d="M144 19.3955C144 19.6603 143.986 19.9409 143.957 20.1774H133.141C133.439 23.0276 135.477 24.4942 137.914 24.4942C139.581 24.4942 141.035 23.8659 142.189 22.8317L143.329 24.2577C141.647 25.8372 139.766 26.3261 137.785 26.3261C133.794 26.3261 130.959 23.5464 130.959 19.452C130.959 15.3576 133.809 12.5639 137.657 12.5639C141.505 12.5639 143.969 15.3717 143.998 19.3955H144ZM133.169 18.4884H141.835C141.565 16.0159 139.91 14.4222 137.617 14.4222C135.124 14.4222 133.513 16.0988 133.171 18.4884H133.169Z" fill="#123466"/>
  <path d="M16.2876 16.4765H18.3666C19.9434 16.4765 21.0576 17.9925 20.559 19.4591L16.8564 30.4505C16.5414 31.3752 15.6594 32 14.6641 32H11.0443L16.2876 16.4765Z" fill="#123466"/>
  <path d="M9.3361 15.5235H7.25712C5.68034 15.5235 4.56615 14.0075 5.06474 12.5409L8.76371 1.54953C9.0787 0.624752 9.9607 0 10.9561 0H14.5759L9.3361 15.5235Z" fill="#FF5745"/>
  <path d="M21.8442 0C24.4434 0 26.2433 2.61019 25.4207 5.02802L25.1094 5.9422H19.8354L21.8442 0Z" fill="#FF5745"/>
  <path d="M3.77776 32C1.17858 32 -0.621402 29.388 0.20119 26.9702L0.512587 26.056H5.78294L3.77776 32Z" fill="#FF5745"/>
  <path d="M15.312 16.4765L10.0741 32H4.74975L9.98769 16.4765H15.312Z" fill="#123466"/>
  <path d="M20.8722 0L15.6342 15.5235H10.3099L15.5478 0H20.8722Z" fill="#123466"/>
</svg>